HIERARCHY
ROOT Hips
{
	OFFSET 0.000000 35.082581 0.000000
	CHANNELS 6 Xposition Yposition Zposition Xrotation Yrotation Zrotation 
	JOINT Spine
	{
		OFFSET 0.000000 6.876099 0.125700
		CHANNELS 3 Xrotation Yrotation Zrotation
		JOINT Spine1
		{
			OFFSET 0.000000 5.730043 0.104720
			CHANNELS 3 Xrotation Yrotation Zrotation
			JOINT Spine1_split
			{
				OFFSET 0.000000 5.730043 0.104720
				CHANNELS 3 Xrotation Yrotation Zrotation
				JOINT Spine2
				{
					OFFSET 0.000000 5.730043 0.104720
					CHANNELS 3 Xrotation Yrotation Zrotation
					JOINT Neck
					{
						OFFSET 0.000000 10.314075 0.188496
						CHANNELS 3 Xrotation Yrotation Zrotation
						JOINT Head
						{
							OFFSET 0.000000 7.643700 -2.377400
							CHANNELS 3 Xrotation Yrotation Zrotation
							JOINT HeadTop_End
							{
								OFFSET 0.000000 43.788605 -13.619600
								CHANNELS 3 Xrotation Yrotation Zrotation
								End Site
								{
									OFFSET 0.000000 0.000000 0.000000
								}
							}
						}
					}
					JOINT LeftShoulder
					{
						OFFSET 2.196100 4.412489 0.087492
						CHANNELS 3 Xrotation Yrotation Zrotation
						JOINT LeftShoulder_split
						{
							OFFSET 2.196100 4.412489 0.087492
							CHANNELS 3 Xrotation Yrotation Zrotation
							JOINT LeftArm
							{
								OFFSET 8.771219 -2.981674 -0.026999
								CHANNELS 3 Xrotation Yrotation Zrotation
								JOINT LeftForeArm
								{
									OFFSET 8.512804 0.000000 -0.000000
									CHANNELS 3 Xrotation Yrotation Zrotation
									JOINT LeftHand
									{
										OFFSET 18.484802 0.000000 -0.000000
										CHANNELS 3 Xrotation Yrotation Zrotation
										JOINT LeftHandThumb1
										{
											OFFSET 2.499420 -1.158070 2.653252
											CHANNELS 3 Xrotation Yrotation Zrotation
											JOINT LeftHandThumb2
											{
												OFFSET 2.370079 -1.368366 1.368366
												CHANNELS 3 Xrotation Yrotation Zrotation
												JOINT LeftHandThumb3
												{
													OFFSET 2.676727 -1.545410 1.545409
													CHANNELS 3 Xrotation Yrotation Zrotation
													JOINT LeftHandThumb4
													{
														OFFSET 1.692226 -0.977005 0.977007
														CHANNELS 3 Xrotation Yrotation Zrotation
														End Site
														{
															OFFSET 0.000000 0.000000 0.000000
														}
													}
												}
											}
										}
										JOINT LeftHandIndex1
										{
											OFFSET 7.924831 -0.457527 2.345128
											CHANNELS 3 Xrotation Yrotation Zrotation
											JOINT LeftHandIndex2
											{
												OFFSET 3.643303 0.000000 0.000000
												CHANNELS 3 Xrotation Yrotation Zrotation
												JOINT LeftHandIndex3
												{
													OFFSET 3.810799 0.000000 0.000000
													CHANNELS 3 Xrotation Yrotation Zrotation
													JOINT LeftHandIndex4
													{
														OFFSET 2.403702 0.000000 0.000000
														CHANNELS 3 Xrotation Yrotation Zrotation
														End Site
														{
															OFFSET 0.000000 0.000000 0.000000
														}
													}
												}
											}
										}
										JOINT LeftHandMiddle1
										{
											OFFSET 8.563995 0.000000 -0.000000
											CHANNELS 3 Xrotation Yrotation Zrotation
											JOINT LeftHandMiddle2
											{
												OFFSET 3.861618 0.000000 0.000000
												CHANNELS 3 Xrotation Yrotation Zrotation
												JOINT LeftHandMiddle3
												{
													OFFSET 3.701603 0.000000 0.000000
													CHANNELS 3 Xrotation Yrotation Zrotation
													JOINT LeftHandMiddle4
													{
														OFFSET 2.322544 0.000000 0.000000
														CHANNELS 3 Xrotation Yrotation Zrotation
														End Site
														{
															OFFSET 0.000000 0.000000 0.000000
														}
													}
												}
											}
										}
										JOINT LeftHandRing1
										{
											OFFSET 8.426460 -0.424637 -3.286992
											CHANNELS 3 Xrotation Yrotation Zrotation
											JOINT LeftHandRing2
											{
												OFFSET 3.126408 0.000000 0.000000
												CHANNELS 3 Xrotation Yrotation Zrotation
												JOINT LeftHandRing3
												{
													OFFSET 3.085026 0.000000 0.000000
													CHANNELS 3 Xrotation Yrotation Zrotation
													JOINT LeftHandRing4
													{
														OFFSET 1.644005 0.000000 0.000000
														CHANNELS 3 Xrotation Yrotation Zrotation
														End Site
														{
															OFFSET 0.000000 0.000000 0.000000
														}
													}
												}
											}
										}
									}
								}
							}
						}
					}
					JOINT RightShoulder
					{
						OFFSET -2.196100 4.412496 0.070690
						CHANNELS 3 Xrotation Yrotation Zrotation
						JOINT RightShoulder_split
						{
							OFFSET -2.196100 4.412496 0.070690
							CHANNELS 3 Xrotation Yrotation Zrotation
							JOINT RightArm
							{
								OFFSET -8.771282 -2.981682 -0.094208
								CHANNELS 3 Xrotation Yrotation Zrotation
								JOINT RightForeArm
								{
									OFFSET -8.494598 0.000000 0.000000
									CHANNELS 3 Xrotation Yrotation Zrotation
									JOINT RightHand
									{
										OFFSET -18.483803 0.000000 0.000001
										CHANNELS 3 Xrotation Yrotation Zrotation
										JOINT RightHandThumb1
										{
											OFFSET -2.527351 -1.008072 2.575253
											CHANNELS 3 Xrotation Yrotation Zrotation
											JOINT RightHandThumb2
											{
												OFFSET -2.321518 -1.340328 1.340329
												CHANNELS 3 Xrotation Yrotation Zrotation
												JOINT RightHandThumb3
												{
													OFFSET -2.657753 -1.534454 1.534455
													CHANNELS 3 Xrotation Yrotation Zrotation
													JOINT RightHandThumb4
													{
														OFFSET -1.807510 -1.043568 1.043567
														CHANNELS 3 Xrotation Yrotation Zrotation
														End Site
														{
															OFFSET 0.000000 0.000000 0.000000
														}
													}
												}
											}
										}
										JOINT RightHandIndex1
										{
											OFFSET -8.811420 0.015533 2.887987
											CHANNELS 3 Xrotation Yrotation Zrotation
											JOINT RightHandIndex2
											{
												OFFSET -3.537502 0.000000 0.000000
												CHANNELS 3 Xrotation Yrotation Zrotation
												JOINT RightHandIndex3
												{
													OFFSET -3.356201 0.000000 0.000000
													CHANNELS 3 Xrotation Yrotation Zrotation
													JOINT RightHandIndex4
													{
														OFFSET -1.933098 0.000000 0.000000
														CHANNELS 3 Xrotation Yrotation Zrotation
														End Site
														{
															OFFSET 0.000000 0.000000 0.000000
														}
													}
												}
											}
										}
										JOINT RightHandMiddle1
										{
											OFFSET -8.178135 0.000000 0.000000
											CHANNELS 3 Xrotation Yrotation Zrotation
											JOINT RightHandMiddle2
											{
												OFFSET -3.901302 0.000000 0.000000
												CHANNELS 3 Xrotation Yrotation Zrotation
												JOINT RightHandMiddle3
												{
													OFFSET -3.909599 0.000000 0.000000
													CHANNELS 3 Xrotation Yrotation Zrotation
													JOINT RightHandMiddle4
													{
														OFFSET -2.376003 0.000000 0.000000
														CHANNELS 3 Xrotation Yrotation Zrotation
														End Site
														{
															OFFSET 0.000000 0.000000 0.000000
														}
													}
												}
											}
										}
										JOINT RightHandRing1
										{
											OFFSET -7.559013 0.014137 -2.865403
											CHANNELS 3 Xrotation Yrotation Zrotation
											JOINT RightHandRing2
											{
												OFFSET -3.449306 0.000000 0.000000
												CHANNELS 3 Xrotation Yrotation Zrotation
												JOINT RightHandRing3
												{
													OFFSET -3.362106 0.000000 0.000000
													CHANNELS 3 Xrotation Yrotation Zrotation
													JOINT RightHandRing4
													{
														OFFSET -2.076401 0.000000 0.000000
														CHANNELS 3 Xrotation Yrotation Zrotation
														End Site
														{
															OFFSET 0.000000 0.000000 0.000000
														}
													}
												}
											}
										}
									}
								}
							}
						}
					}
				}
			}
		}
	}
	JOINT LeftUpLeg
	{
		OFFSET 10.205400 -3.823500 0.155100
		CHANNELS 3 Xrotation Yrotation Zrotation
		JOINT LeftLeg
		{
			OFFSET 0.708757 -12.982077 0.567790
			CHANNELS 3 Xrotation Yrotation Zrotation
			JOINT LeftFoot
			{
				OFFSET -0.708756 -10.717838 -2.184338
				CHANNELS 3 Xrotation Yrotation Zrotation
				JOINT LeftToeBase
				{
					OFFSET 0.108149 -7.191104 7.560241
					CHANNELS 3 Xrotation Yrotation Zrotation
					JOINT LeftToe_End
					{
						OFFSET 0.070230 0.081724 4.490308
						CHANNELS 3 Xrotation Yrotation Zrotation
						End Site
						{
							OFFSET 0.000000 0.000000 0.000000
						}
					}
				}
			}
		}
	}
	JOINT RightUpLeg
	{
		OFFSET -10.205400 -3.823500 0.005500
		CHANNELS 3 Xrotation Yrotation Zrotation
		JOINT RightLeg
		{
			OFFSET -0.708756 -12.982134 0.610632
			CHANNELS 3 Xrotation Yrotation Zrotation
			JOINT RightFoot
			{
				OFFSET 0.708754 -10.717769 -1.945823
				CHANNELS 3 Xrotation Yrotation Zrotation
				JOINT RightToeBase
				{
					OFFSET -0.108140 -7.191069 7.372968
					CHANNELS 3 Xrotation Yrotation Zrotation
					JOINT RightToe_End
					{
						OFFSET -0.070227 0.081735 4.479403
						CHANNELS 3 Xrotation Yrotation Zrotation
						End Site
						{
							OFFSET 0.000000 0.000000 0.000000
						}
					}
				}
			}
		}
	}
}
MOTION
Frames: 4
Frame Time: 0.016667
-1.362993 31.101353 -1.133397 5.118093 -14.494831 8.588929 1.634670 5.168730 2.150274 5.177703 9.319221 2.133651 0.000000 0.000000 0.000000 5.034877 9.321732 2.400949 -1.845149 -1.005207 -1.922214 -8.332132 -2.916354 -12.042394 -0.000000 -0.000000 -0.000000 0.683990 -0.873503 -14.226812 0.000000 0.000000 0.000000 -18.744851 -25.288463 -72.307770 0.000005 -68.920734 0.000008 -36.056589 9.257063 42.116166 -10.930947 -6.748106 10.337276 -18.089409 8.879768 2.392671 5.698778 5.288810 3.340181 -0.000002 0.000003 -0.000001 5.890356 8.200082 -88.621807 6.193140 5.841107 -93.357662 1.839143 4.262524 -46.661486 -0.000001 0.000002 0.000002 7.765545 7.904035 -107.399486 4.299861 5.642387 -74.600808 2.407291 4.733124 -53.896978 -0.000000 -0.000000 0.000002 7.314739 8.035649 -105.794972 3.608009 5.405428 -67.422894 3.239286 5.237602 -63.448776 -0.000001 0.000003 0.000001 -0.133310 13.109092 18.148115 0.000000 0.000000 0.000000 -38.704944 64.841417 69.860268 0.000010 37.971446 -0.000001 -24.338604 -7.627317 -15.970108 17.912453 17.120581 -32.483560 12.694434 -52.014216 20.210871 2.934336 3.697803 -26.040877 0.000003 -0.000005 0.000005 0.276362 -8.899016 1.740163 5.888278 -4.491837 105.344200 2.534118 -4.146024 62.853621 -0.000000 -0.000001 0.000001 4.166178 -8.600802 42.153216 7.050179 -3.996500 120.947132 0.504902 -2.110845 26.901267 -0.000001 0.000001 -0.000002 -0.361093 -4.549284 57.044227 4.703214 -4.656934 90.567120 2.413037 -4.081857 61.166031 0.000000 0.000000 0.000001 -37.535223 -6.051667 -16.419686 -1.363954 -5.907180 -0.310668 32.801184 -27.646342 0.436611 0.917120 -0.676895 0.130960 0.000000 0.000000 0.000000 15.924087 -18.976081 -9.915672 37.181798 9.111903 -4.458028 -30.151440 -3.418128 6.687619 -28.429535 0.040161 -0.837826 -0.000000 -0.000000 -0.000000 
-1.341829 31.110706 -1.153171 5.167711 -14.555577 8.436869 1.699540 5.255012 2.145759 5.160750 9.282536 2.112637 0.000000 0.000000 0.000000 5.022809 9.284437 2.374296 -2.064540 -1.057512 -1.877894 -8.628698 -3.003491 -11.986658 0.000000 -0.000000 -0.000000 0.681861 -0.881332 -14.238614 0.000000 0.000000 0.000000 -18.870684 -25.494062 -72.321841 0.000004 -68.978019 -0.000009 -35.909706 8.762864 42.291876 -10.930968 -6.748106 10.337256 -18.089409 8.879770 2.392672 5.669412 5.325169 3.432860 -0.000001 0.000003 -0.000003 5.684023 8.194838 -88.397039 6.193763 5.841084 -93.363693 1.842338 4.265506 -46.704342 0.000001 -0.000001 0.000000 7.765537 7.904035 -107.399472 4.299856 5.642386 -74.600801 2.407317 4.733137 -53.896978 0.000002 -0.000000 0.000001 7.314716 8.035659 -105.794999 3.608024 5.405434 -67.422894 3.239275 5.237607 -63.448783 -0.000000 0.000001 -0.000000 -0.124886 13.084219 18.116887 0.000000 0.000000 0.000000 -38.677947 64.587689 69.785060 -0.000019 38.471594 0.000009 -23.446984 -7.328097 -15.998979 17.912420 17.120573 -32.483567 12.694438 -52.014226 20.210875 2.934334 3.697805 -26.040877 0.000003 0.000005 0.000003 0.276363 -8.899015 1.740170 5.888278 -4.491838 105.344214 2.534129 -4.146062 62.853621 0.000002 -0.000000 0.000001 4.166167 -8.600795 42.153223 7.050177 -3.996500 120.947132 0.504914 -2.110845 26.901289 0.000001 -0.000000 -0.000002 -0.361085 -4.549274 57.044244 4.703211 -4.656934 90.567120 2.413041 -4.081863 61.166024 0.000000 -0.000001 -0.000002 -37.735515 -5.811100 -16.564554 -0.899895 -6.274124 0.226964 32.483632 -27.651092 0.239006 0.842353 -0.658559 0.031995 0.000000 0.000000 0.000000 16.317069 -18.972483 -9.693976 36.263359 9.211169 -4.285583 -30.152444 -3.323208 6.530195 -27.905957 0.036871 -0.833979 0.000000 0.000000 -0.000000 
-1.320859 31.119347 -1.173823 5.221283 -14.614906 8.280846 1.762426 5.347073 2.152174 5.142804 9.248734 2.093730 0.000000 0.000000 0.000000 5.009904 9.249992 2.349702 -2.293331 -1.110687 -1.843286 -8.922893 -3.110393 -11.930525 -0.000000 -0.000000 -0.000000 0.679165 -0.891289 -14.251613 0.000000 0.000000 0.000000 -19.028053 -25.737560 -72.345965 -0.000012 -69.038698 -0.000007 -35.733501 8.163547 42.501593 -10.930949 -6.748093 10.337246 -18.089411 8.879768 2.392665 5.634717 5.367955 3.542341 -0.000005 0.000001 -0.000000 5.440043 8.186724 -88.133394 6.194494 5.841031 -93.370858 1.846090 4.269043 -46.755022 0.000001 0.000002 0.000000 7.765543 7.904046 -107.399486 4.299873 5.642389 -74.600815 2.407301 4.733142 -53.896978 0.000001 -0.000002 -0.000000 7.314728 8.035651 -105.794993 3.608004 5.405433 -67.422901 3.239305 5.237602 -63.448776 -0.000001 -0.000001 -0.000000 -0.114666 13.054887 18.076879 0.000000 0.000000 0.000000 -38.651825 64.286389 69.702852 -0.000029 39.069690 0.000008 -22.411420 -6.958795 -16.094359 17.912422 17.120583 -32.483550 12.694427 -52.014213 20.210871 2.934333 3.697805 -26.040880 -0.000003 -0.000002 0.000005 0.276339 -8.899007 1.740166 5.888277 -4.491837 105.344207 2.534114 -4.146062 62.853627 -0.000000 -0.000003 0.000001 4.166152 -8.600782 42.153216 7.050178 -3.996499 120.947132 0.504910 -2.110858 26.901277 -0.000002 0.000001 -0.000001 -0.361103 -4.549260 57.044241 4.703209 -4.656934 90.567120 2.413044 -4.081855 61.166031 0.000000 0.000001 0.000000 -37.902284 -5.609292 -16.631019 -0.603793 -6.587125 0.647258 32.357949 -27.658055 0.043742 0.667291 -0.610890 0.005083 0.000000 0.000001 0.000000 16.740841 -18.965649 -9.452833 35.283337 9.330691 -4.107651 -30.145388 -3.244186 6.355653 -27.360365 0.033448 -0.829356 0.000000 -0.000001 0.000000 
-1.300318 31.126881 -1.194890 5.277860 -14.673686 8.121164 1.823466 5.444527 2.168755 5.123975 9.217473 2.076671 0.000000 0.000000 0.000000 4.996256 9.218042 2.326920 -2.529576 -1.164599 -1.816359 -9.215293 -3.233273 -11.874452 0.000000 -0.000001 -0.000000 0.676445 -0.901445 -14.262867 0.000000 0.000000 0.000000 -19.187226 -25.974202 -72.374966 -0.000001 -69.092677 -0.000011 -35.558754 7.571581 42.707612 -10.930955 -6.748099 10.337239 -18.089411 8.879774 2.392668 5.600963 5.409395 3.648633 -0.000003 0.000001 -0.000000 5.203238 8.176898 -87.878949 6.195196 5.840977 -93.377818 1.849753 4.272478 -46.804220 0.000000 0.000001 0.000001 7.765528 7.904041 -107.399500 4.299865 5.642393 -74.600822 2.407298 4.733136 -53.896978 -0.000000 -0.000002 0.000001 7.314706 8.035648 -105.795006 3.608018 5.405421 -67.422901 3.239279 5.237615 -63.448783 0.000000 0.000001 -0.000002 -0.104580 13.026412 18.035898 0.000000 0.000000 0.000000 -38.630966 63.992862 69.627898 -0.000001 39.655382 0.000003 -21.415129 -6.603394 -16.217260 17.912422 17.120597 -32.483557 12.694437 -52.014216 20.210864 2.934337 3.697799 -26.040878 -0.000002 0.000001 0.000003 0.276351 -8.899008 1.740158 5.888278 -4.491842 105.344207 2.534131 -4.146054 62.853621 0.000001 -0.000002 0.000000 4.166164 -8.600782 42.153213 7.050178 -3.996501 120.947132 0.504889 -2.110871 26.901272 -0.000001 0.000000 0.000001 -0.361082 -4.549269 57.044227 4.703212 -4.656934 90.567120 2.413038 -4.081860 61.166024 0.000000 -0.000001 0.000001 -38.061024 -5.436746 -16.626624 -0.384939 -6.845064 0.939281 32.340314 -27.660888 -0.092814 0.446998 -0.535097 0.002994 0.000000 0.000001 0.000000 17.187476 -18.947732 -9.206828 34.255277 9.466704 -3.902123 -30.123620 -3.175228 6.160576 -26.806925 0.030006 -0.823761 0.000000 -0.000000 0.000000 
